<svg width="2410" height="515" viewBox="0 0 2410 515" fill="none" xmlns="http://www.w3.org/2000/svg">
<rect width="2410" height="515" rx="257.5" fill="#2EAB82"/>
<ellipse cx="1061" cy="265.501" rx="195" ry="194.688" fill="#FFD100"/>
<path d="M355.249 357V347.656L376.881 342.664V176.008L355.249 171.272V162.056H444.209V171.272L420.401 176.264V342.536H483.377C488.412 335.539 492.721 328.499 496.305 321.416C499.974 314.248 503.388 306.355 506.545 297.736H519.729L508.977 357H355.249ZM600.345 359.688C586.35 359.688 574.105 356.872 563.609 351.24C553.198 345.523 545.092 337.587 539.289 327.432C533.572 317.192 530.713 305.373 530.713 291.976C530.713 277.725 533.913 265.224 540.313 254.472C546.713 243.72 555.588 235.315 566.937 229.256C578.372 223.197 591.598 220.168 606.617 220.168C625.988 220.168 640.708 225.416 650.777 235.912C660.932 246.323 666.308 261.683 666.905 281.992L664.985 283.656H554.393V272.136L624.921 269.576C625.604 267.784 625.945 264.584 625.945 259.976C625.945 242.056 618.436 233.096 603.417 233.096C593.604 233.096 586.052 237.363 580.761 245.896C575.556 254.429 572.953 266.547 572.953 282.248C572.953 316.381 586.137 333.448 612.505 333.448C630.766 333.448 645.145 327.219 655.641 314.76L662.681 320.776C658.158 333.064 650.393 342.621 639.385 349.448C628.462 356.275 615.449 359.688 600.345 359.688ZM728.257 359.688C721.772 359.688 714.902 359.176 707.649 358.152C700.396 357.213 694.166 355.891 688.961 354.184L687.297 312.968H698.177C698.945 323.976 701.804 332.424 706.753 338.312C711.788 344.115 718.7 347.016 727.489 347.016C734.06 347.016 739.308 345.352 743.233 342.024C747.158 338.611 749.121 334.173 749.121 328.712C749.121 324.445 747.585 320.648 744.513 317.32C741.526 313.907 736.406 310.28 729.153 306.44L716.865 300.168C706.796 294.877 699.372 288.989 694.593 282.504C689.9 276.019 687.553 268.296 687.553 259.336C687.553 246.451 692.246 236.723 701.633 230.152C711.105 223.496 725.014 220.168 743.361 220.168C749.846 220.168 756.076 220.595 762.049 221.448C768.108 222.216 772.972 223.283 776.641 224.648V259.72H766.913C764.438 241.8 755.99 232.84 741.569 232.84C735.766 232.84 731.073 234.248 727.489 237.064C723.99 239.88 722.241 243.549 722.241 248.072C722.241 252.083 723.82 255.709 726.977 258.952C730.134 262.109 735.596 265.565 743.361 269.32L755.521 275.592C764.993 280.456 771.99 286.173 776.513 292.744C781.036 299.229 783.297 307.08 783.297 316.296C783.297 329.949 778.476 340.616 768.833 348.296C759.19 355.891 745.665 359.688 728.257 359.688Z" fill="white"/>
<path d="M1054.68 359.688L985.944 199.688H984.92V342.664L1007.19 347.656V357H944.856V347.656L967.384 342.664V176.008L944.984 171.272V162.056H1021.91L1074.52 292.616H1076.06L1130.97 162.056H1196.12V171.272L1175 176.264V342.28L1196.12 347.656V357H1109.85V347.656L1131.35 342.28V206.472H1130.33L1066.71 359.688H1054.68ZM1314.01 359.688C1303.68 359.688 1295.53 357 1289.56 351.624C1283.59 346.248 1280.6 338.909 1280.6 329.608C1280.6 321.16 1283.25 313.864 1288.54 307.72C1293.83 301.576 1301.93 296.456 1312.86 292.36C1323.86 288.179 1337.86 284.893 1354.84 282.504V263.944C1354.84 252.509 1353.77 244.829 1351.64 240.904C1349.59 236.979 1345.5 235.016 1339.35 235.016C1333.04 235.016 1328.05 236.552 1324.38 239.624C1320.71 242.611 1318.87 246.749 1318.87 252.04C1318.87 253.917 1319.04 255.837 1319.38 257.8C1319.73 259.677 1319.9 261.512 1319.9 263.304C1319.9 268.168 1318.19 272.221 1314.78 275.464C1311.45 278.621 1307.31 280.2 1302.36 280.2C1297.41 280.2 1293.4 278.621 1290.33 275.464C1287.26 272.221 1285.72 268.04 1285.72 262.92C1285.72 257.629 1287.47 252.339 1290.97 247.048C1294.47 241.757 1299.37 237.021 1305.69 232.84C1319 224.392 1335 220.168 1353.69 220.168C1362.82 220.168 1370.16 221.277 1375.7 223.496C1381.34 225.629 1385.56 228.744 1388.38 232.84C1390.34 235.997 1391.79 240.093 1392.73 245.128C1393.67 250.163 1394.14 257.373 1394.14 266.76V318.984C1394.14 326.493 1394.86 331.955 1396.31 335.368C1397.76 338.696 1400.19 340.36 1403.61 340.36C1407.45 340.36 1411.25 338.355 1415 334.344L1420.76 342.536C1415.3 348.339 1409.58 352.648 1403.61 355.464C1397.63 358.28 1391.02 359.688 1383.77 359.688C1375.49 359.688 1369.22 358.024 1364.95 354.696C1360.69 351.368 1357.91 346.333 1356.63 339.592H1355.61C1349.29 346.419 1342.72 351.496 1335.9 354.824C1329.07 358.067 1321.77 359.688 1314.01 359.688ZM1337.3 335.624C1340.8 335.624 1344.05 335.027 1347.03 333.832C1350.02 332.637 1352.62 330.845 1354.84 328.456V294.408C1346.65 296.029 1340.21 297.864 1335.51 299.912C1330.9 301.96 1327.66 304.52 1325.78 307.592C1323.91 310.579 1322.97 314.461 1322.97 319.24C1322.97 324.787 1324.12 328.925 1326.42 331.656C1328.73 334.301 1332.35 335.624 1337.3 335.624ZM1426.16 357V348.04L1445.23 343.048V245.512L1425.91 238.344V232.328L1477.75 220.168H1483.25V243.336L1484.27 244.488V343.048L1517.55 348.04V357H1426.16ZM1481.46 261.768L1481.84 244.488C1488.58 236.552 1495.24 230.493 1501.81 226.312C1508.47 222.045 1514.91 219.912 1521.14 219.912C1527.45 219.912 1532.7 221.704 1536.88 225.288C1541.06 228.872 1543.15 233.309 1543.15 238.6C1543.15 243.72 1541.62 248.029 1538.55 251.528C1535.56 254.941 1531.85 256.648 1527.41 256.648C1522.97 256.648 1518.79 255.069 1514.87 251.912C1512.39 249.779 1510.17 248.243 1508.21 247.304C1506.33 246.28 1504.33 245.768 1502.19 245.768C1499.21 245.768 1495.62 247.389 1491.44 250.632C1487.35 253.789 1484.02 257.501 1481.46 261.768ZM1617.53 359.688C1604.56 359.688 1593.04 356.744 1582.97 350.856C1572.98 344.968 1565.13 336.904 1559.41 326.664C1553.7 316.424 1550.84 304.776 1550.84 291.72C1550.84 277.811 1553.95 265.48 1560.18 254.728C1566.5 243.976 1575.2 235.528 1586.29 229.384C1597.39 223.24 1610.06 220.168 1624.31 220.168C1634.21 220.168 1643.08 221.747 1650.93 224.904C1658.78 227.976 1664.97 232.2 1669.49 237.576C1674.1 242.867 1676.41 248.925 1676.41 255.752C1676.41 260.957 1674.87 265.096 1671.8 268.168C1668.81 271.155 1664.67 272.648 1659.38 272.648C1653.07 272.648 1648.84 270.856 1646.71 267.272C1644.58 263.603 1643.25 259.891 1642.74 256.136C1641.89 249.651 1640.4 244.232 1638.26 239.88C1636.13 235.528 1631.9 233.352 1625.59 233.352C1615.44 233.352 1607.54 237.747 1601.91 246.536C1596.28 255.325 1593.46 267.741 1593.46 283.784C1593.46 299.997 1596.49 312.328 1602.55 320.776C1608.69 329.224 1617.7 333.448 1629.56 333.448C1637.66 333.448 1644.83 331.955 1651.06 328.968C1657.38 325.896 1663.22 321.203 1668.6 314.888L1675.77 320.392C1670.48 333.704 1663.05 343.603 1653.49 350.088C1644.02 356.488 1632.03 359.688 1617.53 359.688ZM1687.49 357V348.04L1706.43 343.048V172.04L1687.36 165V159.112L1740.35 146.696H1745.85V343.048L1763.52 348.04V357H1687.49ZM1777.47 357V348.04L1795.26 343.048V273.672C1795.26 263.261 1793.17 255.581 1788.99 250.632C1784.81 245.597 1778.54 243.08 1770.17 243.08C1764.97 243.08 1760.1 244.104 1755.58 246.152C1751.06 248.2 1746.79 251.016 1742.78 254.6V238.6C1749.35 233.48 1757.12 229.128 1766.08 225.544C1775.12 221.96 1784.38 220.168 1793.85 220.168C1820.99 220.168 1834.56 235.016 1834.56 264.712V343.048L1853.63 348.04V357H1777.47ZM1936.97 359.688C1922.98 359.688 1910.73 356.872 1900.23 351.24C1889.82 345.523 1881.72 337.587 1875.91 327.432C1870.2 317.192 1867.34 305.373 1867.34 291.976C1867.34 277.725 1870.54 265.224 1876.94 254.472C1883.34 243.72 1892.21 235.315 1903.56 229.256C1915 223.197 1928.22 220.168 1943.24 220.168C1962.61 220.168 1977.33 225.416 1987.4 235.912C1997.56 246.323 2002.93 261.683 2003.53 281.992L2001.61 283.656H1891.02V272.136L1961.55 269.576C1962.23 267.784 1962.57 264.584 1962.57 259.976C1962.57 242.056 1955.06 233.096 1940.04 233.096C1930.23 233.096 1922.68 237.363 1917.39 245.896C1912.18 254.429 1909.58 266.547 1909.58 282.248C1909.58 316.381 1922.76 333.448 1949.13 333.448C1967.39 333.448 1981.77 327.219 1992.27 314.76L1999.31 320.776C1994.78 333.064 1987.02 342.621 1976.01 349.448C1965.09 356.275 1952.07 359.688 1936.97 359.688ZM1929.42 197.128L1921.74 194.312L1931.98 156.168C1933.43 150.621 1935.73 146.44 1938.89 143.624C1942.05 140.723 1946.1 139.272 1951.05 139.272C1954.46 139.272 1957.19 140.339 1959.24 142.472C1961.38 144.605 1962.44 147.379 1962.44 150.792C1962.44 153.352 1961.76 156.211 1960.39 159.368C1959.03 162.525 1956.9 165.768 1953.99 169.096L1929.42 197.128ZM2064.88 359.688C2058.4 359.688 2051.53 359.176 2044.27 358.152C2037.02 357.213 2030.79 355.891 2025.59 354.184L2023.92 312.968H2034.8C2035.57 323.976 2038.43 332.424 2043.38 338.312C2048.41 344.115 2055.32 347.016 2064.11 347.016C2070.68 347.016 2075.93 345.352 2079.86 342.024C2083.78 338.611 2085.75 334.173 2085.75 328.712C2085.75 324.445 2084.21 320.648 2081.14 317.32C2078.15 313.907 2073.03 310.28 2065.78 306.44L2053.49 300.168C2043.42 294.877 2036 288.989 2031.22 282.504C2026.52 276.019 2024.18 268.296 2024.18 259.336C2024.18 246.451 2028.87 236.723 2038.26 230.152C2047.73 223.496 2061.64 220.168 2079.99 220.168C2086.47 220.168 2092.7 220.595 2098.67 221.448C2104.73 222.216 2109.6 223.283 2113.27 224.648V259.72H2103.54C2101.06 241.8 2092.62 232.84 2078.19 232.84C2072.39 232.84 2067.7 234.248 2064.11 237.064C2060.62 239.88 2058.87 243.549 2058.87 248.072C2058.87 252.083 2060.44 255.709 2063.6 258.952C2066.76 262.109 2072.22 265.565 2079.99 269.32L2092.15 275.592C2101.62 280.456 2108.62 286.173 2113.14 292.744C2117.66 299.229 2119.92 307.08 2119.92 316.296C2119.92 329.949 2115.1 340.616 2105.46 348.296C2095.82 355.891 2082.29 359.688 2064.88 359.688Z" fill="white"/>
</svg>
